<?xml version="1.0" encoding="UTF-8"?>
<!DOCTYPE svg PUBLIC "-//W3C//DTD SVG 1.1//EN" "http://www.w3.org/Graphics/SVG/1.1/DTD/svg11.dtd">
<!-- Creator: CorelDRAW 2019 (64-Bit) -->
<svg xmlns="http://www.w3.org/2000/svg" xml:space="preserve" width="59px" height="32px" version="1.1" style="shape-rendering:geometricPrecision; text-rendering:geometricPrecision; image-rendering:optimizeQuality; fill-rule:evenodd; clip-rule:evenodd"
viewBox="0 0 59 31.79"
 xmlns:xlink="http://www.w3.org/1999/xlink"
 xmlns:xodm="http://www.corel.com/coreldraw/odm/2003">
 <defs>
  <style type="text/css">
   <![CDATA[
    .fil2 {fill:#AAFDAA}
    .fil3 {fill:#FE8C8C}
    .fil1 {fill:#FED07D}
    .fil0 {fill:#606060;fill-rule:nonzero}
   ]]>
  </style>
 </defs>
 <g id="Capa_x0020_1">
  <metadata id="CorelCorpID_0Corel-Layer"/>
  <g id="_1957565540720">
   <polygon class="fil0" points="21.16,0 24.38,0.02 34.7,17.12 34.7,0 37.83,0 37.83,23.86 34.93,23.86 24.3,6.37 24.3,23.86 21.16,23.86 "/>
   <rect class="fil1" x="21.16" y="28.6" width="16.67" height="3.18" rx="1.99" ry="1.59"/>
   <polygon class="fil0" points="16.67,3.19 4.33,20.69 16.67,20.69 16.67,23.88 0,23.88 0,20.69 12.37,3.19 0,3.19 0,0 16.67,0 "/>
   <rect class="fil2" y="28.6" width="16.67" height="3.18" rx="1.99" ry="1.59"/>
   <path class="fil0" d="M50.79 23.88c-1.56,0 -3.55,-0.4 -4.73,-1.12 -1.19,-0.72 -2.11,-1.74 -2.76,-3.06 -0.65,-1.32 -0.97,-2.85 -0.97,-4.58l0 -6.41c0,-1.74 0.32,-3.27 0.97,-4.59 0.65,-1.31 1.57,-2.33 2.76,-3.06 1.18,-0.72 3.17,-1.04 4.73,-1.04 1.3,0 2.91,0.29 4,0.86 1.09,0.58 1.99,1.39 2.72,2.44 0.73,1.05 1.23,2.27 1.49,3.65l0 0 -3.25 0 0 0c-0.2,-0.73 -0.53,-1.38 -0.99,-1.95 -0.46,-0.58 -1,-1.02 -1.62,-1.33 -0.62,-0.31 -1.68,-0.47 -2.35,-0.47 -0.92,0 -2.34,0.19 -3.03,0.65 -0.7,0.46 -1.24,1.1 -1.62,1.93 -0.38,0.84 -0.57,1.8 -0.57,2.91l0 6.41c0,1.09 0.19,2.06 0.57,2.89 0.38,0.84 0.92,1.48 1.62,1.94 0.69,0.45 2.11,0.73 3.03,0.73 0.68,0 1.74,-0.14 2.36,-0.43 0.62,-0.29 1.15,-0.72 1.61,-1.29 0.46,-0.57 0.79,-1.24 0.99,-2.03l0 0 3.25 0 0 0c-0.26,1.39 -0.77,2.6 -1.5,3.65 -0.73,1.05 -1.64,1.86 -2.73,2.44 -1.08,0.57 -2.69,0.86 -3.98,0.86z"/>
   <rect class="fil3" x="42.33" y="28.6" width="16.67" height="3.18" rx="1.99" ry="1.59"/>
  </g>
 </g>
</svg>
