<?xml version="1.0" encoding="UTF-8"?>
<!DOCTYPE svg PUBLIC "-//W3C//DTD SVG 1.1//EN" "http://www.w3.org/Graphics/SVG/1.1/DTD/svg11.dtd">
<!-- Creator: CorelDRAW 2019 (64-Bit) -->
<svg xmlns="http://www.w3.org/2000/svg" xml:space="preserve" width="191px" height="60px" version="1.1" style="shape-rendering:geometricPrecision; text-rendering:geometricPrecision; image-rendering:optimizeQuality; fill-rule:evenodd; clip-rule:evenodd"
viewBox="0 0 84.62 26.6"
 xmlns:xlink="http://www.w3.org/1999/xlink"
 xmlns:xodm="http://www.corel.com/coreldraw/odm/2003">
 <defs>
  <style type="text/css">
   <![CDATA[
    .fil1 {fill:#898989;fill-rule:nonzero}
    .fil0 {fill:#5B5B5B;fill-rule:nonzero}
   ]]>
  </style>
 </defs>
 <g id="Capa_x0020_1">
  <metadata id="CorelCorpID_0Corel-Layer"/>
  <g id="_2358711808512">
   <polygon class="fil0" points="32.7,2.09 25.78,13.96 32.92,13.96 32.92,16.08 23.03,16.08 23.03,14.15 30.01,2.29 23.23,2.29 23.23,0.16 32.7,0.16 "/>
   <polygon id="1" class="fil0" points="35.88,0.16 37.9,0.16 45.68,12.46 45.42,12.75 45.42,0.16 47.63,0.16 47.63,16.07 45.59,16.07 37.83,3.95 38.09,3.67 38.09,16.07 35.88,16.07 "/>
   <path id="2" class="fil0" d="M56.11 16.24c-1.1,0 -2.07,-0.24 -2.91,-0.73 -0.83,-0.49 -1.48,-1.18 -1.94,-2.08 -0.46,-0.9 -0.69,-1.94 -0.69,-3.12l0 -4.37c0,-1.18 0.23,-2.22 0.69,-3.12 0.46,-0.89 1.11,-1.59 1.94,-2.08 0.84,-0.49 1.81,-0.74 2.91,-0.74 0.91,0 1.75,0.2 2.52,0.59 0.76,0.38 1.4,0.94 1.92,1.65 0.51,0.72 0.86,1.55 1.04,2.49l0 0 -2.29 0 0 0c-0.14,-0.5 -0.37,-0.94 -0.69,-1.33 -0.33,-0.39 -0.71,-0.69 -1.15,-0.9 -0.43,-0.21 -0.88,-0.32 -1.35,-0.32 -0.65,0 -1.22,0.15 -1.71,0.47 -0.49,0.31 -0.87,0.75 -1.14,1.32 -0.27,0.56 -0.4,1.22 -0.4,1.97l0 4.37c0,0.74 0.13,1.4 0.4,1.97 0.27,0.57 0.65,1.01 1.14,1.32 0.49,0.31 1.06,0.46 1.71,0.46 0.47,0 0.92,-0.09 1.36,-0.29 0.43,-0.2 0.81,-0.49 1.14,-0.88 0.32,-0.38 0.55,-0.84 0.69,-1.38l0 0 2.29 0 0 0c-0.18,0.94 -0.53,1.77 -1.05,2.49 -0.52,0.71 -1.16,1.27 -1.93,1.65 -0.76,0.4 -1.6,0.59 -2.5,0.59z"/>
   <polygon class="fil1" points="3.7,21.19 1.05,25.72 3.78,25.72 3.78,26.54 0,26.54 0,25.8 2.67,21.26 0.07,21.26 0.07,20.45 3.7,20.45 "/>
   <path id="1" class="fil1" d="M6.63 26.6c-0.4,0 -0.75,-0.08 -1.03,-0.23 -0.29,-0.15 -0.5,-0.37 -0.65,-0.66 -0.15,-0.29 -0.23,-0.64 -0.23,-1.06l0 -0.49c0,-0.43 0.07,-0.79 0.22,-1.1 0.14,-0.3 0.35,-0.53 0.63,-0.69 0.27,-0.16 0.6,-0.24 0.98,-0.24 0.37,0 0.68,0.09 0.93,0.27 0.26,0.18 0.45,0.44 0.59,0.79 0.14,0.34 0.2,0.75 0.2,1.23l0 0.29 -2.93 0 0 -0.69 2.12 0 0 0c-0.02,-0.35 -0.12,-0.63 -0.27,-0.83 -0.16,-0.19 -0.37,-0.29 -0.64,-0.29 -0.32,0 -0.57,0.1 -0.75,0.32 -0.18,0.21 -0.26,0.51 -0.26,0.9l0 0.55c0,0.36 0.09,0.64 0.28,0.83 0.19,0.19 0.46,0.29 0.81,0.29 0.17,0 0.34,-0.04 0.51,-0.11 0.17,-0.07 0.33,-0.17 0.46,-0.29l0 0 0.56 0.56 0 0c-0.21,0.21 -0.46,0.37 -0.72,0.48 -0.27,0.11 -0.54,0.17 -0.81,0.17z"/>
   <path id="2" class="fil1" d="M9.46 22.19l0.86 0 0 4.35 -0.86 0 0 -4.35zm2.39 1.03c-0.07,-0.09 -0.17,-0.16 -0.28,-0.21 -0.12,-0.05 -0.25,-0.07 -0.4,-0.07 -0.27,0 -0.48,0.08 -0.63,0.22 -0.15,0.15 -0.22,0.36 -0.22,0.63l-0.09 -0.84c0.13,-0.26 0.31,-0.46 0.52,-0.61 0.21,-0.14 0.45,-0.21 0.7,-0.21 0.2,0 0.38,0.03 0.54,0.08 0.16,0.06 0.3,0.15 0.42,0.26l-0.56 0.75z"/>
   <path id="3" class="fil1" d="M14.72 26.6c-0.37,0 -0.69,-0.08 -0.96,-0.22 -0.27,-0.15 -0.48,-0.37 -0.62,-0.65 -0.14,-0.28 -0.21,-0.62 -0.21,-1.02l0 -0.71c0,-0.39 0.07,-0.73 0.21,-1.01 0.14,-0.28 0.35,-0.5 0.62,-0.64 0.27,-0.15 0.59,-0.22 0.96,-0.22 0.38,0 0.7,0.07 0.97,0.22 0.27,0.14 0.47,0.36 0.61,0.64 0.14,0.28 0.22,0.62 0.22,1.01l0 0.72c0,0.4 -0.08,0.73 -0.22,1.01 -0.14,0.28 -0.34,0.5 -0.61,0.65 -0.27,0.14 -0.59,0.22 -0.97,0.22zm0 -0.81c0.3,0 0.53,-0.1 0.7,-0.28 0.16,-0.19 0.24,-0.45 0.24,-0.79l0 -0.72c0,-0.34 -0.08,-0.6 -0.24,-0.78 -0.17,-0.19 -0.4,-0.28 -0.7,-0.28 -0.29,0 -0.53,0.09 -0.69,0.28 -0.16,0.18 -0.24,0.44 -0.24,0.78l0 0.72c0,0.34 0.08,0.6 0.24,0.79 0.16,0.18 0.4,0.28 0.69,0.28z"/>
   <polygon id="4" class="fil1" points="20.13,20.45 20.91,20.45 23.88,25.15 23.78,25.26 23.78,20.45 24.63,20.45 24.63,26.53 23.85,26.53 20.88,21.9 20.98,21.79 20.98,26.53 20.13,26.53 "/>
   <path id="5" class="fil1" d="M27.74 26.6c-0.38,0 -0.7,-0.08 -0.97,-0.22 -0.27,-0.15 -0.47,-0.37 -0.61,-0.65 -0.14,-0.28 -0.21,-0.62 -0.21,-1.02l0 -0.71c0,-0.39 0.07,-0.73 0.21,-1.01 0.14,-0.28 0.34,-0.5 0.61,-0.64 0.27,-0.15 0.59,-0.22 0.97,-0.22 0.37,0 0.7,0.07 0.96,0.22 0.27,0.14 0.48,0.36 0.62,0.64 0.14,0.28 0.21,0.62 0.21,1.01l0 0.72c0,0.4 -0.07,0.73 -0.21,1.01 -0.14,0.28 -0.35,0.5 -0.62,0.65 -0.26,0.14 -0.59,0.22 -0.96,0.22zm0 -0.81c0.3,0 0.53,-0.1 0.69,-0.28 0.16,-0.19 0.24,-0.45 0.24,-0.79l0 -0.72c0,-0.34 -0.08,-0.6 -0.24,-0.78 -0.16,-0.19 -0.39,-0.28 -0.69,-0.28 -0.3,0 -0.53,0.09 -0.7,0.28 -0.16,0.18 -0.24,0.44 -0.24,0.78l0 0.72c0,0.34 0.08,0.6 0.24,0.79 0.17,0.18 0.4,0.28 0.7,0.28z"/>
   <path id="6" class="fil1" d="M30.76 20.45l0.86 0 0 0.85 -0.86 0 0 -0.85zm0 1.74l0.86 0 0 4.35 -0.86 0 0 -4.35z"/>
   <path id="7" class="fil1" d="M34.47 26.6c-0.26,0 -0.5,-0.03 -0.72,-0.08 -0.23,-0.05 -0.44,-0.12 -0.63,-0.22 -0.2,-0.1 -0.38,-0.23 -0.54,-0.38l0 0 0.5 -0.62 0 0c0.24,0.18 0.47,0.31 0.7,0.4 0.23,0.09 0.46,0.13 0.69,0.13 0.34,0 0.59,-0.05 0.76,-0.15 0.17,-0.11 0.25,-0.27 0.25,-0.48 0,-0.13 -0.04,-0.24 -0.14,-0.31 -0.09,-0.07 -0.2,-0.12 -0.34,-0.14 -0.14,-0.02 -0.33,-0.04 -0.58,-0.06 -0.02,0 -0.04,0 -0.07,-0.01 -0.02,0 -0.05,0 -0.07,0 -0.01,0 -0.02,0 -0.03,0 -0.01,-0.01 -0.03,-0.01 -0.04,-0.01 -0.28,-0.02 -0.52,-0.06 -0.71,-0.12 -0.2,-0.06 -0.36,-0.17 -0.49,-0.34 -0.13,-0.16 -0.19,-0.4 -0.19,-0.7 0,-0.31 0.06,-0.57 0.18,-0.77 0.13,-0.2 0.32,-0.36 0.56,-0.46 0.25,-0.1 0.56,-0.15 0.94,-0.15 0.22,0 0.44,0.02 0.64,0.06 0.21,0.04 0.41,0.11 0.59,0.19 0.19,0.08 0.37,0.18 0.54,0.31l0 0 -0.51 0.62 0 0c-0.22,-0.14 -0.43,-0.24 -0.64,-0.31 -0.22,-0.07 -0.42,-0.11 -0.62,-0.11 -0.29,0 -0.51,0.05 -0.66,0.15 -0.14,0.1 -0.21,0.25 -0.21,0.45 0,0.12 0.04,0.2 0.12,0.26 0.08,0.06 0.19,0.1 0.31,0.12 0.13,0.02 0.31,0.04 0.54,0.05 0.02,0 0.03,0 0.05,0 0.02,0 0.04,0.01 0.06,0.01 0.01,0 0.01,0 0.02,0 0.01,0 0.02,0 0.03,0 0.3,0.02 0.56,0.06 0.78,0.12 0.21,0.07 0.39,0.19 0.53,0.37 0.15,0.18 0.22,0.44 0.22,0.78 0,0.32 -0.07,0.58 -0.2,0.78 -0.14,0.21 -0.34,0.36 -0.61,0.46 -0.26,0.11 -0.6,0.16 -1.01,0.16z"/>
   <path id="8" class="fil1" d="M39.18 26.6c-0.41,0 -0.75,-0.08 -1.03,-0.23 -0.29,-0.15 -0.51,-0.37 -0.65,-0.66 -0.15,-0.29 -0.23,-0.64 -0.23,-1.06l0 -0.49c0,-0.43 0.07,-0.79 0.22,-1.1 0.14,-0.3 0.35,-0.53 0.62,-0.69 0.28,-0.16 0.61,-0.24 0.99,-0.24 0.36,0 0.67,0.09 0.93,0.27 0.26,0.18 0.45,0.44 0.59,0.79 0.13,0.34 0.2,0.75 0.2,1.23l0 0.29 -2.93 0 0 -0.69 2.12 0 0 0c-0.03,-0.35 -0.12,-0.63 -0.28,-0.83 -0.15,-0.19 -0.36,-0.29 -0.63,-0.29 -0.32,0 -0.57,0.1 -0.75,0.32 -0.18,0.21 -0.27,0.51 -0.27,0.9l0 0.55c0,0.36 0.1,0.64 0.29,0.83 0.19,0.19 0.46,0.29 0.81,0.29 0.17,0 0.34,-0.04 0.51,-0.11 0.17,-0.07 0.32,-0.17 0.46,-0.29l0 0 0.56 0.56 0 0c-0.22,0.21 -0.46,0.37 -0.73,0.48 -0.26,0.11 -0.53,0.17 -0.8,0.17z"/>
   <path id="9" class="fil1" d="M46.39 26.6c-0.42,0 -0.79,-0.09 -1.11,-0.28 -0.32,-0.19 -0.57,-0.45 -0.74,-0.8 -0.18,-0.34 -0.27,-0.74 -0.27,-1.19l0 -1.67c0,-0.45 0.09,-0.85 0.27,-1.19 0.17,-0.35 0.42,-0.61 0.74,-0.8 0.32,-0.19 0.69,-0.28 1.11,-0.28 0.35,0 0.67,0.07 0.96,0.22 0.3,0.15 0.54,0.36 0.74,0.63 0.19,0.28 0.33,0.59 0.4,0.95l0 0 -0.88 0 0 0c-0.05,-0.18 -0.14,-0.36 -0.26,-0.5 -0.13,-0.15 -0.27,-0.27 -0.44,-0.35 -0.17,-0.08 -0.34,-0.12 -0.52,-0.12 -0.25,0 -0.47,0.06 -0.65,0.18 -0.19,0.12 -0.34,0.29 -0.44,0.5 -0.1,0.22 -0.15,0.47 -0.15,0.76l0 1.67c0,0.28 0.05,0.54 0.15,0.75 0.1,0.22 0.25,0.39 0.44,0.51 0.18,0.12 0.4,0.18 0.65,0.18 0.18,0 0.35,-0.04 0.52,-0.12 0.17,-0.07 0.31,-0.18 0.44,-0.33 0.12,-0.15 0.21,-0.33 0.26,-0.53l0 0 0.88 0 0 0c-0.07,0.36 -0.21,0.68 -0.41,0.95 -0.19,0.27 -0.44,0.49 -0.73,0.63 -0.29,0.15 -0.61,0.23 -0.96,0.23z"/>
   <path id="10" class="fil1" d="M50.49 25.41c0,0.11 0.02,0.19 0.07,0.25 0.05,0.06 0.11,0.08 0.19,0.08l0.4 0 0 0.82 -0.5 0c-0.32,0 -0.57,-0.1 -0.75,-0.3 -0.18,-0.21 -0.26,-0.49 -0.26,-0.85l0 -4.96 0.85 0 0 4.96z"/>
   <path id="11" class="fil1" d="M54.55 23.78c0,-0.28 -0.08,-0.5 -0.23,-0.66 -0.15,-0.16 -0.37,-0.24 -0.65,-0.24 -0.17,0 -0.34,0.03 -0.51,0.08 -0.16,0.05 -0.31,0.13 -0.44,0.22l-0.62 -0.42c0.16,-0.2 0.38,-0.36 0.65,-0.47 0.27,-0.11 0.57,-0.16 0.9,-0.16 0.36,0 0.67,0.06 0.92,0.19 0.26,0.13 0.46,0.31 0.59,0.55 0.13,0.24 0.2,0.53 0.2,0.87l0 2.8 -0.81 0 0 -2.76zm-1.07 2.82c-0.53,0 -0.93,-0.11 -1.2,-0.33 -0.26,-0.23 -0.39,-0.56 -0.39,-1.02 0,-0.42 0.12,-0.75 0.36,-0.96 0.24,-0.22 0.61,-0.32 1.1,-0.32l1.24 0 0.05 0.68 -1.28 0c-0.23,0 -0.39,0.05 -0.5,0.15 -0.12,0.1 -0.17,0.25 -0.17,0.45 0,0.23 0.07,0.39 0.22,0.49 0.15,0.11 0.37,0.16 0.67,0.16 0.32,0 0.57,-0.03 0.73,-0.1 0.16,-0.07 0.24,-0.18 0.24,-0.33l0.09 0.61c-0.08,0.12 -0.17,0.22 -0.28,0.29 -0.11,0.08 -0.24,0.13 -0.39,0.17 -0.14,0.04 -0.3,0.06 -0.49,0.06z"/>
   <path id="12" class="fil1" d="M58.21 26.6c-0.25,0 -0.5,-0.03 -0.72,-0.08 -0.23,-0.05 -0.44,-0.12 -0.63,-0.22 -0.2,-0.1 -0.38,-0.23 -0.54,-0.38l0 0 0.51 -0.62 0 0c0.23,0.18 0.46,0.31 0.7,0.4 0.23,0.09 0.46,0.13 0.68,0.13 0.34,0 0.59,-0.05 0.76,-0.15 0.17,-0.11 0.26,-0.27 0.26,-0.48 0,-0.13 -0.05,-0.24 -0.14,-0.31 -0.09,-0.07 -0.21,-0.12 -0.35,-0.14 -0.13,-0.02 -0.32,-0.04 -0.57,-0.06 -0.03,0 -0.05,0 -0.07,-0.01 -0.03,0 -0.05,0 -0.08,0 -0.01,0 -0.02,0 -0.03,0 -0.01,-0.01 -0.02,-0.01 -0.03,-0.01 -0.29,-0.02 -0.52,-0.06 -0.72,-0.12 -0.19,-0.06 -0.36,-0.17 -0.49,-0.34 -0.13,-0.16 -0.19,-0.4 -0.19,-0.7 0,-0.31 0.06,-0.57 0.19,-0.77 0.12,-0.2 0.31,-0.36 0.56,-0.46 0.25,-0.1 0.56,-0.15 0.93,-0.15 0.23,0 0.44,0.02 0.65,0.06 0.2,0.04 0.4,0.11 0.59,0.19 0.18,0.08 0.36,0.18 0.54,0.31l0 0 -0.52 0.62 0 0c-0.22,-0.14 -0.43,-0.24 -0.64,-0.31 -0.21,-0.07 -0.42,-0.11 -0.62,-0.11 -0.29,0 -0.51,0.05 -0.65,0.15 -0.15,0.1 -0.22,0.25 -0.22,0.45 0,0.12 0.04,0.2 0.12,0.26 0.09,0.06 0.19,0.1 0.32,0.12 0.12,0.02 0.3,0.04 0.53,0.05 0.02,0 0.04,0 0.05,0 0.02,0 0.04,0.01 0.06,0.01 0.01,0 0.02,0 0.03,0 0,0 0.01,0 0.02,0 0.3,0.02 0.56,0.06 0.78,0.12 0.21,0.07 0.39,0.19 0.54,0.37 0.14,0.18 0.21,0.44 0.21,0.78 0,0.32 -0.06,0.58 -0.2,0.78 -0.13,0.21 -0.33,0.36 -0.6,0.46 -0.27,0.11 -0.61,0.16 -1.02,0.16z"/>
   <path id="13" class="fil1" d="M62.68 26.6c-0.26,0 -0.5,-0.03 -0.73,-0.08 -0.22,-0.05 -0.43,-0.12 -0.63,-0.22 -0.19,-0.1 -0.37,-0.23 -0.54,-0.38l0 0 0.51 -0.62 0 0c0.23,0.18 0.47,0.31 0.7,0.4 0.23,0.09 0.46,0.13 0.69,0.13 0.33,0 0.59,-0.05 0.76,-0.15 0.16,-0.11 0.25,-0.27 0.25,-0.48 0,-0.13 -0.05,-0.24 -0.14,-0.31 -0.09,-0.07 -0.21,-0.12 -0.34,-0.14 -0.14,-0.02 -0.33,-0.04 -0.58,-0.06 -0.02,0 -0.05,0 -0.07,-0.01 -0.03,0 -0.05,0 -0.07,0 -0.01,0 -0.02,0 -0.04,0 -0.01,-0.01 -0.02,-0.01 -0.03,-0.01 -0.28,-0.02 -0.52,-0.06 -0.72,-0.12 -0.19,-0.06 -0.35,-0.17 -0.48,-0.34 -0.13,-0.16 -0.2,-0.4 -0.2,-0.7 0,-0.31 0.07,-0.57 0.19,-0.77 0.13,-0.2 0.31,-0.36 0.56,-0.46 0.25,-0.1 0.56,-0.15 0.94,-0.15 0.22,0 0.44,0.02 0.64,0.06 0.21,0.04 0.4,0.11 0.59,0.19 0.19,0.08 0.37,0.18 0.54,0.31l0 0 -0.52 0.62 0 0c-0.21,-0.14 -0.43,-0.24 -0.64,-0.31 -0.21,-0.07 -0.41,-0.11 -0.61,-0.11 -0.3,0 -0.51,0.05 -0.66,0.15 -0.14,0.1 -0.22,0.25 -0.22,0.45 0,0.12 0.05,0.2 0.13,0.26 0.08,0.06 0.18,0.1 0.31,0.12 0.13,0.02 0.3,0.04 0.54,0.05 0.01,0 0.03,0 0.05,0 0.02,0 0.03,0.01 0.05,0.01 0.01,0 0.02,0 0.03,0 0.01,0 0.02,0 0.02,0 0.31,0.02 0.57,0.06 0.78,0.12 0.21,0.07 0.39,0.19 0.54,0.37 0.14,0.18 0.22,0.44 0.22,0.78 0,0.32 -0.07,0.58 -0.2,0.78 -0.14,0.21 -0.34,0.36 -0.61,0.46 -0.27,0.11 -0.61,0.16 -1.01,0.16z"/>
   <path id="14" class="fil1" d="M65.6 22.19l0.86 0 0 4.35 -0.86 0 0 -4.35zm2.39 1.03c-0.07,-0.09 -0.17,-0.16 -0.28,-0.21 -0.12,-0.05 -0.25,-0.07 -0.4,-0.07 -0.27,0 -0.48,0.08 -0.63,0.22 -0.15,0.15 -0.22,0.36 -0.22,0.63l-0.09 -0.84c0.13,-0.26 0.31,-0.46 0.52,-0.61 0.21,-0.14 0.45,-0.21 0.7,-0.21 0.2,0 0.38,0.03 0.54,0.08 0.16,0.06 0.3,0.15 0.42,0.26l-0.56 0.75z"/>
   <path id="15" class="fil1" d="M70.86 26.6c-0.37,0 -0.7,-0.08 -0.96,-0.22 -0.27,-0.15 -0.48,-0.37 -0.62,-0.65 -0.14,-0.28 -0.21,-0.62 -0.21,-1.02l0 -0.71c0,-0.39 0.07,-0.73 0.21,-1.01 0.14,-0.28 0.35,-0.5 0.62,-0.64 0.26,-0.15 0.59,-0.22 0.96,-0.22 0.38,0 0.7,0.07 0.97,0.22 0.27,0.14 0.47,0.36 0.61,0.64 0.14,0.28 0.21,0.62 0.21,1.01l0 0.72c0,0.4 -0.07,0.73 -0.21,1.01 -0.14,0.28 -0.34,0.5 -0.61,0.65 -0.27,0.14 -0.59,0.22 -0.97,0.22zm0 -0.81c0.3,0 0.53,-0.1 0.7,-0.28 0.16,-0.19 0.24,-0.45 0.24,-0.79l0 -0.72c0,-0.34 -0.08,-0.6 -0.24,-0.78 -0.17,-0.19 -0.4,-0.28 -0.7,-0.28 -0.3,0 -0.53,0.09 -0.69,0.28 -0.16,0.18 -0.24,0.44 -0.24,0.78l0 0.72c0,0.34 0.08,0.6 0.24,0.79 0.16,0.18 0.39,0.28 0.69,0.28z"/>
   <path id="16" class="fil1" d="M75.55 26.6c-0.37,0 -0.69,-0.08 -0.96,-0.22 -0.27,-0.15 -0.48,-0.37 -0.62,-0.65 -0.14,-0.28 -0.21,-0.62 -0.21,-1.02l0 -0.71c0,-0.39 0.07,-0.73 0.21,-1.01 0.14,-0.28 0.35,-0.5 0.62,-0.64 0.27,-0.15 0.59,-0.22 0.96,-0.22 0.38,0 0.7,0.07 0.97,0.22 0.27,0.14 0.47,0.36 0.61,0.64 0.14,0.28 0.22,0.62 0.22,1.01l0 0.72c0,0.4 -0.08,0.73 -0.22,1.01 -0.14,0.28 -0.34,0.5 -0.61,0.65 -0.27,0.14 -0.59,0.22 -0.97,0.22zm0 -0.81c0.3,0 0.53,-0.1 0.7,-0.28 0.16,-0.19 0.24,-0.45 0.24,-0.79l0 -0.72c0,-0.34 -0.08,-0.6 -0.24,-0.78 -0.17,-0.19 -0.4,-0.28 -0.7,-0.28 -0.29,0 -0.53,0.09 -0.69,0.28 -0.16,0.18 -0.24,0.44 -0.24,0.78l0 0.72c0,0.34 0.08,0.6 0.24,0.79 0.16,0.18 0.4,0.28 0.69,0.28z"/>
   <path id="17" class="fil1" d="M83.77 23.9c0,-0.3 -0.08,-0.54 -0.24,-0.71 -0.16,-0.17 -0.38,-0.25 -0.67,-0.25 -0.26,0 -0.47,0.08 -0.61,0.24 -0.15,0.17 -0.22,0.39 -0.22,0.69l-0.17 -0.84c0.13,-0.28 0.31,-0.51 0.54,-0.66 0.22,-0.16 0.47,-0.24 0.74,-0.24 0.31,0 0.58,0.07 0.8,0.2 0.22,0.14 0.39,0.35 0.51,0.61 0.12,0.27 0.17,0.59 0.17,0.96l0 2.64 -0.85 0 0 -2.64zm-5.19 -1.71l0.85 0 0 4.35 -0.85 0 0 -4.35zm2.59 1.71c0,-0.3 -0.07,-0.54 -0.22,-0.71 -0.15,-0.17 -0.37,-0.25 -0.64,-0.25 -0.28,0 -0.5,0.07 -0.65,0.22 -0.15,0.15 -0.23,0.36 -0.23,0.63l-0.09 -0.84c0.14,-0.26 0.31,-0.47 0.53,-0.61 0.22,-0.14 0.46,-0.21 0.72,-0.21 0.3,0 0.56,0.07 0.78,0.2 0.21,0.14 0.38,0.35 0.49,0.61 0.11,0.27 0.17,0.59 0.17,0.96l0 2.64 -0.86 0 0 -2.64z"/>
  </g>
 </g>
</svg>
