<?xml version="1.0" encoding="UTF-8"?>
<!DOCTYPE svg PUBLIC "-//W3C//DTD SVG 1.1//EN" "http://www.w3.org/Graphics/SVG/1.1/DTD/svg11.dtd">
<!-- Creator: CorelDRAW 2019 (64-Bit) -->
<svg xmlns="http://www.w3.org/2000/svg" xml:space="preserve" width="168px" height="50px" version="1.1" style="shape-rendering:geometricPrecision; text-rendering:geometricPrecision; image-rendering:optimizeQuality; fill-rule:evenodd; clip-rule:evenodd"
viewBox="0 0 97.29 28.96"
 xmlns:xlink="http://www.w3.org/1999/xlink"
 xmlns:xodm="http://www.corel.com/coreldraw/odm/2003">
 <defs>
  <style type="text/css">
   <![CDATA[
    .fil1 {fill:#898989;fill-rule:nonzero}
    .fil0 {fill:#5B5B5B;fill-rule:nonzero}
   ]]>
  </style>
 </defs>
 <g id="Capa_x0020_1">
  <metadata id="CorelCorpID_0Corel-Layer"/>
  <polygon class="fil0" points="11.08,12.75 3.15,26.34 11.34,26.34 11.34,28.77 0,28.77 0,26.56 8,12.97 0.22,12.97 0.22,10.54 11.08,10.54 "/>
  <polygon id="1" class="fil0" points="14.72,10.54 17.04,10.54 25.96,24.63 25.66,24.96 25.66,10.54 28.19,10.54 28.19,28.76 25.85,28.76 16.96,14.88 17.26,14.55 17.26,28.76 14.72,28.76 "/>
  <path id="2" class="fil0" d="M37.91 28.96c-1.26,0 -2.37,-0.28 -3.33,-0.84 -0.96,-0.56 -1.7,-1.35 -2.23,-2.38 -0.52,-1.03 -0.79,-2.22 -0.79,-3.58l0 -5c0,-1.35 0.27,-2.55 0.79,-3.58 0.53,-1.02 1.27,-1.82 2.23,-2.38 0.96,-0.57 2.07,-0.85 3.33,-0.85 1.04,0 2.01,0.23 2.88,0.67 0.88,0.45 1.61,1.08 2.2,1.9 0.59,0.82 0.99,1.77 1.2,2.85l0 0 -2.62 0 0 0c-0.16,-0.57 -0.43,-1.08 -0.8,-1.53 -0.37,-0.45 -0.81,-0.79 -1.31,-1.03 -0.5,-0.24 -1.02,-0.37 -1.55,-0.37 -0.75,0 -1.4,0.18 -1.96,0.54 -0.56,0.36 -1,0.87 -1.3,1.51 -0.31,0.66 -0.47,1.41 -0.47,2.27l0 5c0,0.86 0.16,1.61 0.47,2.26 0.3,0.66 0.74,1.16 1.3,1.51 0.56,0.36 1.21,0.54 1.96,0.54 0.54,0 1.06,-0.12 1.56,-0.34 0.5,-0.23 0.93,-0.56 1.3,-1.01 0.37,-0.44 0.64,-0.97 0.8,-1.58l0 0 2.62 0 0 0c-0.21,1.08 -0.61,2.03 -1.2,2.85 -0.6,0.82 -1.33,1.45 -2.21,1.9 -0.88,0.45 -1.84,0.67 -2.87,0.67z"/>
  <polygon class="fil1" points="4.54,0.92 1.51,6.12 4.64,6.12 4.64,7.05 0.3,7.05 0.3,6.2 3.36,1 0.39,1 0.39,0.07 4.54,0.07 "/>
  <path id="1" class="fil1" d="M7.9 7.12c-0.46,0 -0.86,-0.09 -1.18,-0.26 -0.33,-0.17 -0.58,-0.43 -0.75,-0.76 -0.17,-0.33 -0.25,-0.74 -0.25,-1.21l0 -0.56c0,-0.5 0.08,-0.92 0.24,-1.26 0.17,-0.35 0.41,-0.62 0.72,-0.8 0.31,-0.18 0.69,-0.27 1.13,-0.27 0.42,0 0.77,0.1 1.07,0.31 0.29,0.2 0.52,0.51 0.67,0.9 0.16,0.39 0.23,0.87 0.23,1.42l0 0.32 -3.35 0 0 -0.79 2.42 0 0 0c-0.03,-0.4 -0.13,-0.72 -0.31,-0.94 -0.18,-0.23 -0.42,-0.34 -0.73,-0.34 -0.37,0 -0.66,0.12 -0.86,0.36 -0.2,0.25 -0.3,0.59 -0.3,1.04l0 0.63c0,0.41 0.11,0.73 0.32,0.95 0.22,0.22 0.53,0.33 0.93,0.33 0.2,0 0.39,-0.04 0.59,-0.12 0.19,-0.08 0.37,-0.19 0.52,-0.34l0 0 0.64 0.65 0 0c-0.24,0.23 -0.52,0.42 -0.83,0.54 -0.3,0.13 -0.61,0.2 -0.92,0.2z"/>
  <path id="2" class="fil1" d="M11.15 2.07l0.98 0 0 4.98 -0.98 0 0 -4.98zm2.74 1.18c-0.09,-0.11 -0.2,-0.19 -0.33,-0.24 -0.13,-0.06 -0.28,-0.08 -0.45,-0.08 -0.31,0 -0.55,0.08 -0.72,0.25 -0.18,0.17 -0.26,0.41 -0.26,0.72l-0.1 -0.96c0.15,-0.3 0.35,-0.53 0.59,-0.7 0.25,-0.16 0.52,-0.24 0.81,-0.24 0.23,0 0.43,0.03 0.62,0.09 0.18,0.07 0.34,0.17 0.48,0.29l-0.64 0.87z"/>
  <path id="3" class="fil1" d="M17.18 7.12c-0.43,0 -0.8,-0.09 -1.11,-0.25 -0.31,-0.17 -0.54,-0.42 -0.7,-0.75 -0.16,-0.32 -0.25,-0.71 -0.25,-1.17l0 -0.81c0,-0.45 0.09,-0.84 0.25,-1.16 0.16,-0.32 0.39,-0.57 0.7,-0.73 0.31,-0.17 0.68,-0.25 1.11,-0.25 0.43,0 0.8,0.08 1.11,0.25 0.3,0.16 0.54,0.41 0.7,0.73 0.16,0.32 0.24,0.71 0.24,1.16l0 0.82c0,0.46 -0.08,0.85 -0.24,1.17 -0.16,0.32 -0.4,0.57 -0.7,0.74 -0.31,0.16 -0.68,0.25 -1.11,0.25zm0 -0.93c0.34,0 0.6,-0.11 0.79,-0.32 0.19,-0.22 0.28,-0.52 0.28,-0.91l0 -0.82c0,-0.39 -0.09,-0.69 -0.28,-0.9 -0.19,-0.21 -0.45,-0.31 -0.79,-0.31 -0.34,0 -0.61,0.1 -0.8,0.31 -0.18,0.21 -0.28,0.51 -0.28,0.9l0 0.82c0,0.39 0.1,0.69 0.28,0.91 0.19,0.21 0.46,0.32 0.8,0.32z"/>
  <polygon id="4" class="fil1" points="23.38,0.07 24.27,0.07 27.68,5.46 27.56,5.59 27.56,0.07 28.53,0.07 28.53,7.04 27.63,7.04 24.23,1.73 24.35,1.61 24.35,7.04 23.38,7.04 "/>
  <path id="5" class="fil1" d="M32.09 7.12c-0.43,0 -0.8,-0.09 -1.11,-0.25 -0.3,-0.17 -0.54,-0.42 -0.7,-0.75 -0.16,-0.32 -0.24,-0.71 -0.24,-1.17l0 -0.81c0,-0.45 0.08,-0.84 0.24,-1.16 0.16,-0.32 0.4,-0.57 0.7,-0.73 0.31,-0.17 0.68,-0.25 1.11,-0.25 0.43,0 0.8,0.08 1.11,0.25 0.31,0.16 0.54,0.41 0.7,0.73 0.16,0.32 0.25,0.71 0.25,1.16l0 0.82c0,0.46 -0.09,0.85 -0.25,1.17 -0.16,0.32 -0.39,0.57 -0.7,0.74 -0.31,0.16 -0.68,0.25 -1.11,0.25zm0 -0.93c0.34,0 0.61,-0.11 0.8,-0.32 0.18,-0.22 0.28,-0.52 0.28,-0.91l0 -0.82c0,-0.39 -0.1,-0.69 -0.28,-0.9 -0.19,-0.21 -0.46,-0.31 -0.8,-0.31 -0.34,0 -0.6,0.1 -0.79,0.31 -0.19,0.21 -0.28,0.51 -0.28,0.9l0 0.82c0,0.39 0.09,0.69 0.28,0.91 0.19,0.21 0.45,0.32 0.79,0.32z"/>
  <path id="6" class="fil1" d="M35.56 0.07l0.98 0 0 0.98 -0.98 0 0 -0.98zm0 2l0.98 0 0 4.98 -0.98 0 0 -4.98z"/>
  <path id="7" class="fil1" d="M39.81 7.12c-0.3,0 -0.57,-0.03 -0.83,-0.09 -0.26,-0.05 -0.5,-0.14 -0.72,-0.26 -0.23,-0.11 -0.43,-0.25 -0.62,-0.43l0 0 0.58 -0.71 0 0c0.27,0.2 0.53,0.36 0.8,0.46 0.27,0.1 0.53,0.15 0.79,0.15 0.38,0 0.68,-0.06 0.87,-0.18 0.19,-0.12 0.29,-0.3 0.29,-0.54 0,-0.16 -0.05,-0.28 -0.16,-0.36 -0.11,-0.08 -0.24,-0.13 -0.39,-0.16 -0.16,-0.03 -0.38,-0.05 -0.66,-0.07 -0.03,0 -0.06,0 -0.09,0 -0.03,-0.01 -0.05,-0.01 -0.08,-0.01 -0.01,0 -0.02,0 -0.04,0 -0.01,-0.01 -0.02,-0.01 -0.04,-0.01 -0.32,-0.02 -0.59,-0.07 -0.82,-0.14 -0.22,-0.07 -0.41,-0.2 -0.55,-0.39 -0.15,-0.18 -0.23,-0.45 -0.23,-0.81 0,-0.35 0.07,-0.64 0.22,-0.87 0.14,-0.24 0.36,-0.41 0.64,-0.53 0.29,-0.12 0.64,-0.17 1.07,-0.17 0.26,0 0.51,0.02 0.74,0.07 0.24,0.05 0.46,0.12 0.68,0.21 0.21,0.1 0.42,0.22 0.62,0.36l0 0 -0.6 0.71 0 0c-0.24,-0.16 -0.49,-0.28 -0.73,-0.36 -0.24,-0.08 -0.48,-0.12 -0.71,-0.12 -0.33,0 -0.58,0.06 -0.75,0.17 -0.16,0.12 -0.25,0.29 -0.25,0.51 0,0.14 0.05,0.24 0.15,0.31 0.09,0.06 0.21,0.11 0.35,0.13 0.15,0.02 0.35,0.04 0.62,0.06 0.02,0 0.04,0 0.06,0 0.02,0 0.04,0.01 0.06,0.01 0.01,0 0.02,0 0.03,0 0.01,0 0.02,0 0.03,0 0.35,0.03 0.64,0.07 0.89,0.14 0.24,0.07 0.45,0.21 0.61,0.42 0.17,0.21 0.25,0.51 0.25,0.9 0,0.36 -0.07,0.66 -0.23,0.89 -0.15,0.24 -0.38,0.41 -0.69,0.53 -0.31,0.12 -0.7,0.18 -1.16,0.18z"/>
  <path id="8" class="fil1" d="M45.2 7.12c-0.46,0 -0.85,-0.09 -1.18,-0.26 -0.32,-0.17 -0.57,-0.43 -0.74,-0.76 -0.18,-0.33 -0.26,-0.74 -0.26,-1.21l0 -0.56c0,-0.5 0.08,-0.92 0.25,-1.26 0.16,-0.35 0.4,-0.62 0.71,-0.8 0.32,-0.18 0.69,-0.27 1.13,-0.27 0.42,0 0.78,0.1 1.07,0.31 0.29,0.2 0.52,0.51 0.67,0.9 0.16,0.39 0.24,0.87 0.24,1.42l0 0.32 -3.36 0 0 -0.79 2.43 0 0 0c-0.03,-0.4 -0.14,-0.72 -0.32,-0.94 -0.18,-0.23 -0.42,-0.34 -0.73,-0.34 -0.37,0 -0.65,0.12 -0.86,0.36 -0.2,0.25 -0.3,0.59 -0.3,1.04l0 0.63c0,0.41 0.11,0.73 0.32,0.95 0.22,0.22 0.53,0.33 0.93,0.33 0.2,0 0.4,-0.04 0.59,-0.12 0.2,-0.08 0.37,-0.19 0.53,-0.34l0 0 0.64 0.65 0 0c-0.25,0.23 -0.53,0.42 -0.83,0.54 -0.31,0.13 -0.62,0.2 -0.93,0.2z"/>
  <path id="9" class="fil1" d="M53.47 7.12c-0.48,0 -0.91,-0.11 -1.27,-0.32 -0.37,-0.22 -0.65,-0.52 -0.86,-0.91 -0.2,-0.4 -0.3,-0.85 -0.3,-1.37l0 -1.92c0,-0.51 0.1,-0.97 0.3,-1.36 0.21,-0.4 0.49,-0.7 0.86,-0.92 0.36,-0.21 0.79,-0.32 1.27,-0.32 0.4,0 0.77,0.09 1.1,0.26 0.34,0.17 0.62,0.41 0.84,0.72 0.23,0.32 0.38,0.68 0.46,1.09l0 0 -1 0 0 0c-0.06,-0.21 -0.16,-0.41 -0.31,-0.58 -0.14,-0.17 -0.3,-0.3 -0.5,-0.4 -0.19,-0.09 -0.39,-0.14 -0.59,-0.14 -0.29,0 -0.53,0.07 -0.75,0.21 -0.21,0.14 -0.38,0.33 -0.5,0.58 -0.12,0.25 -0.18,0.54 -0.18,0.86l0 1.92c0,0.32 0.06,0.61 0.18,0.86 0.12,0.25 0.29,0.44 0.5,0.58 0.22,0.14 0.46,0.2 0.75,0.2 0.21,0 0.41,-0.04 0.6,-0.12 0.19,-0.09 0.35,-0.22 0.49,-0.39 0.15,-0.17 0.25,-0.37 0.31,-0.6l0 0 1 0 0 0c-0.08,0.41 -0.23,0.77 -0.46,1.09 -0.22,0.31 -0.51,0.55 -0.84,0.72 -0.34,0.17 -0.7,0.26 -1.1,0.26z"/>
  <path id="10" class="fil1" d="M58.17 5.76c0,0.12 0.03,0.22 0.08,0.28 0.05,0.07 0.12,0.1 0.22,0.1l0.46 0 0 0.93 -0.57 0c-0.38,0 -0.66,-0.11 -0.87,-0.34 -0.2,-0.23 -0.3,-0.56 -0.3,-0.98l0 -5.68 0.98 0 0 5.69z"/>
  <path id="11" class="fil1" d="M62.82 3.89c0,-0.33 -0.09,-0.58 -0.26,-0.76 -0.18,-0.18 -0.42,-0.27 -0.74,-0.27 -0.2,0 -0.4,0.03 -0.59,0.09 -0.19,0.06 -0.36,0.15 -0.5,0.25l-0.72 -0.49c0.19,-0.22 0.44,-0.4 0.75,-0.52 0.31,-0.13 0.65,-0.19 1.03,-0.19 0.41,0 0.76,0.07 1.06,0.21 0.29,0.15 0.52,0.36 0.67,0.64 0.15,0.27 0.23,0.61 0.23,1l0 3.2 -0.93 0 0 -3.16zm-1.22 3.23c-0.61,0 -1.07,-0.13 -1.38,-0.38 -0.3,-0.26 -0.45,-0.64 -0.45,-1.16 0,-0.49 0.14,-0.86 0.42,-1.11 0.27,-0.25 0.69,-0.37 1.26,-0.37l1.41 0 0.07 0.79 -1.48 0c-0.25,0 -0.44,0.05 -0.57,0.17 -0.13,0.11 -0.19,0.29 -0.19,0.52 0,0.25 0.08,0.44 0.25,0.56 0.17,0.12 0.42,0.18 0.77,0.18 0.37,0 0.65,-0.04 0.83,-0.12 0.19,-0.08 0.28,-0.2 0.28,-0.37l0.1 0.7c-0.09,0.13 -0.19,0.24 -0.32,0.33 -0.13,0.09 -0.27,0.15 -0.44,0.19 -0.16,0.05 -0.35,0.07 -0.56,0.07z"/>
  <path id="12" class="fil1" d="M67.02 7.12c-0.3,0 -0.57,-0.03 -0.83,-0.09 -0.26,-0.05 -0.5,-0.14 -0.72,-0.26 -0.22,-0.11 -0.43,-0.25 -0.62,-0.43l0 0 0.58 -0.71 0 0c0.27,0.2 0.54,0.36 0.8,0.46 0.27,0.1 0.53,0.15 0.79,0.15 0.38,0 0.68,-0.06 0.87,-0.18 0.19,-0.12 0.29,-0.3 0.29,-0.54 0,-0.16 -0.05,-0.28 -0.16,-0.36 -0.1,-0.08 -0.24,-0.13 -0.39,-0.16 -0.16,-0.03 -0.38,-0.05 -0.66,-0.07 -0.03,0 -0.06,0 -0.09,0 -0.03,-0.01 -0.05,-0.01 -0.08,-0.01 -0.01,0 -0.02,0 -0.04,0 -0.01,-0.01 -0.02,-0.01 -0.03,-0.01 -0.33,-0.02 -0.6,-0.07 -0.82,-0.14 -0.23,-0.07 -0.41,-0.2 -0.56,-0.39 -0.15,-0.18 -0.23,-0.45 -0.23,-0.81 0,-0.35 0.08,-0.64 0.22,-0.87 0.14,-0.24 0.36,-0.41 0.64,-0.53 0.29,-0.12 0.64,-0.17 1.07,-0.17 0.26,0 0.51,0.02 0.74,0.07 0.24,0.05 0.46,0.12 0.68,0.21 0.21,0.1 0.42,0.22 0.62,0.36l0 0 -0.59 0.71 0 0c-0.25,-0.16 -0.5,-0.28 -0.74,-0.36 -0.24,-0.08 -0.48,-0.12 -0.71,-0.12 -0.33,0 -0.58,0.06 -0.75,0.17 -0.16,0.12 -0.25,0.29 -0.25,0.51 0,0.14 0.05,0.24 0.15,0.31 0.09,0.06 0.21,0.11 0.35,0.13 0.15,0.02 0.35,0.04 0.62,0.06 0.02,0 0.04,0 0.06,0 0.02,0 0.04,0.01 0.06,0.01 0.01,0 0.02,0 0.03,0 0.01,0 0.02,0 0.03,0 0.35,0.03 0.64,0.07 0.89,0.14 0.24,0.07 0.45,0.21 0.62,0.42 0.16,0.21 0.24,0.51 0.24,0.9 0,0.36 -0.07,0.66 -0.22,0.89 -0.16,0.24 -0.39,0.41 -0.7,0.53 -0.31,0.12 -0.69,0.18 -1.16,0.18z"/>
  <path id="13" class="fil1" d="M72.13 7.12c-0.29,0 -0.57,-0.03 -0.82,-0.09 -0.26,-0.05 -0.5,-0.14 -0.72,-0.26 -0.23,-0.11 -0.44,-0.25 -0.62,-0.43l0 0 0.58 -0.71 0 0c0.26,0.2 0.53,0.36 0.8,0.46 0.26,0.1 0.53,0.15 0.78,0.15 0.39,0 0.68,-0.06 0.88,-0.18 0.19,-0.12 0.29,-0.3 0.29,-0.54 0,-0.16 -0.06,-0.28 -0.16,-0.36 -0.11,-0.08 -0.24,-0.13 -0.4,-0.16 -0.15,-0.03 -0.37,-0.05 -0.66,-0.07 -0.02,0 -0.05,0 -0.08,0 -0.03,-0.01 -0.06,-0.01 -0.08,-0.01 -0.01,0 -0.03,0 -0.04,0 -0.01,-0.01 -0.03,-0.01 -0.04,-0.01 -0.32,-0.02 -0.59,-0.07 -0.82,-0.14 -0.22,-0.07 -0.41,-0.2 -0.56,-0.39 -0.15,-0.18 -0.22,-0.45 -0.22,-0.81 0,-0.35 0.07,-0.64 0.22,-0.87 0.14,-0.24 0.35,-0.41 0.64,-0.53 0.28,-0.12 0.64,-0.17 1.07,-0.17 0.26,0 0.5,0.02 0.74,0.07 0.23,0.05 0.46,0.12 0.67,0.21 0.22,0.1 0.42,0.22 0.62,0.36l0 0 -0.59 0.71 0 0c-0.25,-0.16 -0.49,-0.28 -0.73,-0.36 -0.25,-0.08 -0.48,-0.12 -0.71,-0.12 -0.34,0 -0.58,0.06 -0.75,0.17 -0.17,0.12 -0.25,0.29 -0.25,0.51 0,0.14 0.05,0.24 0.14,0.31 0.1,0.06 0.22,0.11 0.36,0.13 0.14,0.02 0.35,0.04 0.61,0.06 0.02,0 0.04,0 0.06,0 0.02,0 0.04,0.01 0.07,0.01 0.01,0 0.02,0 0.03,0 0.01,0 0.02,0 0.02,0 0.35,0.03 0.65,0.07 0.9,0.14 0.24,0.07 0.45,0.21 0.61,0.42 0.17,0.21 0.25,0.51 0.25,0.9 0,0.36 -0.07,0.66 -0.23,0.89 -0.15,0.24 -0.38,0.41 -0.69,0.53 -0.31,0.12 -0.7,0.18 -1.17,0.18z"/>
  <path id="14" class="fil1" d="M75.49 2.07l0.98 0 0 4.98 -0.98 0 0 -4.98zm2.74 1.18c-0.09,-0.11 -0.2,-0.19 -0.33,-0.24 -0.13,-0.06 -0.28,-0.08 -0.45,-0.08 -0.31,0 -0.55,0.08 -0.73,0.25 -0.17,0.17 -0.25,0.41 -0.25,0.72l-0.1 -0.96c0.15,-0.3 0.35,-0.53 0.59,-0.7 0.25,-0.16 0.51,-0.24 0.81,-0.24 0.23,0 0.43,0.03 0.61,0.09 0.19,0.07 0.35,0.17 0.49,0.29l-0.64 0.87z"/>
  <path id="15" class="fil1" d="M81.52 7.12c-0.43,0 -0.8,-0.09 -1.11,-0.25 -0.31,-0.17 -0.54,-0.42 -0.7,-0.75 -0.17,-0.32 -0.25,-0.71 -0.25,-1.17l0 -0.81c0,-0.45 0.08,-0.84 0.25,-1.16 0.16,-0.32 0.39,-0.57 0.7,-0.73 0.31,-0.17 0.68,-0.25 1.11,-0.25 0.43,0 0.8,0.08 1.11,0.25 0.3,0.16 0.54,0.41 0.7,0.73 0.16,0.32 0.24,0.71 0.24,1.16l0 0.82c0,0.46 -0.08,0.85 -0.24,1.17 -0.16,0.32 -0.4,0.57 -0.7,0.74 -0.31,0.16 -0.68,0.25 -1.11,0.25zm0 -0.93c0.34,0 0.6,-0.11 0.79,-0.32 0.19,-0.22 0.28,-0.52 0.28,-0.91l0 -0.82c0,-0.39 -0.09,-0.69 -0.28,-0.9 -0.19,-0.21 -0.45,-0.31 -0.79,-0.31 -0.34,0 -0.61,0.1 -0.8,0.31 -0.18,0.21 -0.28,0.51 -0.28,0.9l0 0.82c0,0.39 0.1,0.69 0.28,0.91 0.19,0.21 0.46,0.32 0.8,0.32z"/>
  <path id="16" class="fil1" d="M86.89 7.12c-0.43,0 -0.8,-0.09 -1.1,-0.25 -0.31,-0.17 -0.55,-0.42 -0.71,-0.75 -0.16,-0.32 -0.24,-0.71 -0.24,-1.17l0 -0.81c0,-0.45 0.08,-0.84 0.24,-1.16 0.16,-0.32 0.4,-0.57 0.71,-0.73 0.3,-0.17 0.67,-0.25 1.1,-0.25 0.43,0 0.8,0.08 1.11,0.25 0.31,0.16 0.54,0.41 0.7,0.73 0.17,0.32 0.25,0.71 0.25,1.16l0 0.82c0,0.46 -0.08,0.85 -0.25,1.17 -0.16,0.32 -0.39,0.57 -0.7,0.74 -0.31,0.16 -0.68,0.25 -1.11,0.25zm0 -0.93c0.35,0 0.61,-0.11 0.8,-0.32 0.18,-0.22 0.28,-0.52 0.28,-0.91l0 -0.82c0,-0.39 -0.1,-0.69 -0.28,-0.9 -0.19,-0.21 -0.45,-0.31 -0.8,-0.31 -0.34,0 -0.6,0.1 -0.79,0.31 -0.19,0.21 -0.28,0.51 -0.28,0.9l0 0.82c0,0.39 0.09,0.69 0.28,0.91 0.19,0.21 0.45,0.32 0.79,0.32z"/>
  <path id="17" class="fil1" d="M96.31 4.03c0,-0.35 -0.09,-0.62 -0.27,-0.82 -0.19,-0.19 -0.44,-0.28 -0.77,-0.28 -0.31,0 -0.54,0.09 -0.71,0.27 -0.16,0.19 -0.25,0.45 -0.25,0.79l-0.19 -0.96c0.15,-0.33 0.36,-0.58 0.62,-0.76 0.25,-0.18 0.54,-0.27 0.85,-0.27 0.36,0 0.66,0.07 0.92,0.23 0.25,0.16 0.45,0.39 0.58,0.7 0.13,0.3 0.2,0.67 0.2,1.09l0 3.03 -0.98 0 0 -3.02zm-5.95 -1.96l0.98 0 0 4.98 -0.98 0 0 -4.98zm2.97 1.96c0,-0.35 -0.08,-0.62 -0.25,-0.82 -0.18,-0.19 -0.42,-0.28 -0.74,-0.28 -0.32,0 -0.56,0.08 -0.74,0.25 -0.17,0.17 -0.26,0.41 -0.26,0.72l-0.1 -0.96c0.15,-0.3 0.35,-0.54 0.6,-0.7 0.25,-0.16 0.52,-0.24 0.82,-0.24 0.35,0 0.65,0.07 0.9,0.23 0.24,0.16 0.43,0.39 0.56,0.7 0.13,0.3 0.19,0.67 0.19,1.09l0 3.03 -0.98 0 0 -3.02z"/>
 </g>
</svg>
